<svg width="100" height="100" viewBox="0 0 100 100" fill="none" xmlns="http://www.w3.org/2000/svg">
<path d="M31.5 55.5C31.5 50.9467 35.1912 47.2556 39.7444 47.2556C44.2977 47.2556 47.9889 50.9467 47.9889 55.5C47.9889 60.0533 44.2977 63.7444 39.7444 63.7444C35.1912 63.7444 31.5 60.0533 31.5 55.5Z" stroke="white" stroke-width="3.5"/>
<path d="M89.5889 63.5V55.2556C89.5889 50.7023 85.8977 47.0111 81.3444 47.0111C76.7911 47.0111 73.1 50.7023 73.1 55.2556C73.1 59.8088 76.7911 63.5 81.3444 63.5H84.8778" stroke="white" stroke-width="3.53333" stroke-linecap="round"/>
<path d="M60.5 47C55.9467 47 52.5 50.7023 52.5 55.2556V63.5M60.5 47C60.5 57.5 60.5 50.7023 60.5 55.2556V63.5M60.5 47C65.0533 47 68.5 50.7023 68.5 55.2556V63.5" stroke="white" stroke-width="3.53333" stroke-linecap="round"/>
<path d="M11 55.2555C11 59.8087 14.4467 62.9111 19 62.9111C23.5533 62.9111 27 59.8087 27 55.2555C27 50.7022 24.3 51.1333 19 49.9555C13.7 48.7777 11 49.2088 11 44.6556C11 40.1023 14.4467 37 19 37C23.5533 37 27 40.1023 27 44.6556" stroke="white" stroke-width="3.53333" stroke-linecap="round"/>
</svg>
